<?xml version="1.0" standalone="no"?>
<!DOCTYPE svg PUBLIC "-//W3C//DTD SVG 20010904//EN"
 "http://www.w3.org/TR/2001/REC-SVG-20010904/DTD/svg10.dtd">
<svg version="1.0" xmlns="http://www.w3.org/2000/svg"
 width="400.000000pt" height="301.000000pt" viewBox="0 0 400.000000 301.000000"
 preserveAspectRatio="xMidYMid meet">
<metadata>
Created by potrace 1.13, written by Peter Selinger 2001-2015
</metadata>
<g transform="translate(0.000000,301.000000) scale(0.100000,-0.100000)"
fill="#000000" stroke="none">
<path d="M3365 2921 c-14 -11 -129 -37 -252 -56 -172 -26 -231 -55 -335 -162
-36 -38 -98 -119 -137 -179 -38 -60 -91 -143 -118 -184 -147 -228 -265 -306
-587 -386 -78 -19 -175 -43 -216 -53 -124 -31 -199 -65 -325 -146 -113 -74
-165 -123 -228 -218 -66 -98 -100 -135 -145 -154 -18 -7 -95 -20 -170 -28
-153 -16 -193 -24 -237 -48 -51 -28 -68 -45 -61 -62 8 -21 72 -48 96 -40 31
10 32 -13 1 -29 -16 -9 -39 -28 -51 -43 l-22 -28 26 -22 c46 -39 187 -42 316
-6 80 22 152 58 267 134 56 37 127 77 158 88 109 41 312 49 515 20 36 -5 117
-16 180 -24 63 -9 119 -20 123 -24 13 -13 -28 -92 -98 -189 -43 -59 -59 -89
-51 -94 32 -18 219 32 335 89 70 35 80 45 142 132 90 126 135 154 174 111 36
-40 119 -70 194 -70 96 0 198 44 146 63 -27 11 -64 85 -76 152 -15 86 -6 167
30 292 44 151 67 244 106 421 52 243 57 251 277 444 74 65 104 119 114 202 8
68 -11 106 -54 106 -16 0 -32 -4 -37 -9z m8 -130 c59 -22 12 -103 -110 -194
-117 -85 -164 -135 -186 -193 -17 -45 -57 -189 -77 -274 -4 -19 -8 -27 -9 -17
-2 32 -16 17 -50 -56 -40 -85 -44 -95 -67 -167 -43 -140 -100 -221 -214 -308
-47 -35 -59 -51 -84 -114 -16 -40 -39 -87 -52 -105 -13 -17 -24 -36 -24 -42 0
-6 -4 -11 -8 -11 -5 0 -15 -11 -22 -25 -7 -14 -18 -25 -24 -25 -6 0 -5 5 2 12
18 18 15 33 -4 17 -13 -10 -17 -10 -25 2 -5 8 -9 10 -9 6 0 -4 -8 -3 -19 2
-10 6 -33 12 -50 13 -17 1 -31 6 -31 12 0 5 -10 1 -21 -10 l-21 -19 7 45 c4
25 11 52 15 61 13 24 24 189 13 189 -14 0 -48 -40 -71 -83 -11 -21 -22 -33
-24 -27 -3 10 -45 4 -358 -46 -52 -9 -117 -19 -145 -24 -27 -4 -43 -9 -35 -11
8 -1 -37 -6 -100 -9 -130 -8 -193 -22 -258 -56 -25 -13 -53 -22 -62 -19 -9 3
-25 -2 -36 -10 -10 -8 -14 -15 -7 -15 6 0 15 4 18 10 3 5 12 10 18 10 7 0 3
-7 -8 -16 -11 -8 -26 -12 -34 -9 -17 7 -132 -33 -143 -49 -4 -6 -8 -7 -8 -3 0
10 -112 -51 -121 -65 -3 -5 -10 -9 -15 -8 -5 1 -10 -3 -12 -9 -2 -6 7 -12 20
-12 16 -1 18 -3 6 -6 -9 -2 -27 1 -39 7 -12 7 -19 8 -15 2 13 -22 -28 -34
-127 -39 -66 -4 -106 -2 -110 5 -4 5 18 29 49 52 30 23 53 47 51 53 -2 7 -34
15 -71 19 -37 3 -71 9 -74 13 -15 14 46 51 103 62 33 6 124 16 201 20 132 8
144 10 177 36 20 15 68 71 106 125 38 53 91 118 118 144 48 47 198 142 263
168 19 7 53 21 75 31 37 16 142 43 325 84 99 22 256 85 354 143 128 74 206
164 342 392 135 229 212 306 349 355 11 4 72 11 135 15 63 5 126 13 140 18 21
8 28 6 45 -14 11 -13 32 -28 48 -33z"/>
<path d="M172 672 c-6 -53 -18 -144 -27 -202 -8 -58 -17 -127 -20 -155 -3 -27
-10 -66 -15 -85 -5 -19 -11 -56 -13 -82 -4 -44 -3 -48 18 -48 21 0 23 7 34
102 7 57 16 130 21 163 5 33 13 92 18 130 10 72 19 105 31 105 3 0 26 -43 51
-95 25 -52 48 -95 52 -95 5 0 8 -6 8 -13 0 -8 18 -51 40 -96 22 -45 40 -86 40
-91 0 -6 3 -10 8 -10 4 0 16 -21 26 -46 l19 -47 18 24 c10 13 19 29 19 34 1
27 207 420 220 420 12 0 17 -23 24 -102 5 -57 12 -103 15 -103 4 0 8 -30 9
-67 2 -37 6 -72 9 -77 4 -5 9 -37 12 -70 5 -54 9 -61 29 -64 18 -3 22 1 22 24
0 15 -4 41 -9 58 -6 17 -15 76 -21 131 -7 55 -16 125 -21 155 -4 30 -15 106
-22 168 -8 62 -17 115 -21 119 -3 3 -6 -1 -6 -10 0 -9 -4 -17 -10 -17 -5 0
-10 -5 -10 -11 0 -15 -83 -183 -93 -187 -4 -2 -7 -8 -7 -14 0 -23 -141 -298
-153 -298 -7 0 -73 124 -148 275 l-136 275 -11 -98z"/>
<path d="M2800 446 c0 -179 -1 -329 -2 -333 -9 -25 264 -8 367 23 48 14 115
63 115 84 0 5 4 10 9 10 5 0 13 10 17 23 4 12 10 24 15 27 4 3 13 38 19 77 13
80 1 199 -24 248 -24 46 -85 104 -140 132 -48 25 -62 27 -213 31 l-163 4 0
-326z m231 275 c85 -8 102 -13 147 -42 100 -67 154 -205 122 -313 -7 -23 -14
-48 -17 -56 -2 -8 -4 -17 -3 -19 1 -2 -23 -27 -53 -57 -70 -66 -106 -77 -262
-78 l-120 -1 -3 275 c-1 151 0 280 3 287 5 15 50 16 186 4z"/>
<path d="M3520 434 l0 -336 93 5 c138 8 207 25 242 61 33 34 67 126 54 147 -5
8 -9 24 -9 37 0 24 -71 102 -94 102 -7 0 -19 7 -26 15 -10 13 -8 19 14 36 57
45 74 135 36 196 -31 52 -91 73 -209 73 l-101 0 0 -336z m188 287 c65 -13 92
-43 92 -106 0 -43 -4 -55 -28 -78 -27 -26 -97 -46 -172 -51 l-25 -1 -3 123 -3
122 48 0 c26 -1 67 -5 91 -9z m78 -313 c36 -21 74 -82 74 -118 0 -29 -29 -82
-54 -100 -34 -24 -90 -37 -165 -39 l-71 -1 0 146 0 147 91 -8 c63 -4 101 -13
125 -27z"/>
<path d="M1115 585 c-74 -36 -127 -100 -141 -171 -24 -120 23 -232 122 -290
38 -23 60 -28 113 -28 76 -1 118 15 174 69 21 20 41 34 44 31 3 -3 6 -25 7
-48 1 -32 5 -44 19 -46 16 -3 17 14 17 242 0 242 0 246 -21 246 -16 0 -20 -6
-19 -27 4 -64 -11 -70 -54 -22 -61 68 -172 87 -261 44z m205 -44 c40 -25 90
-84 96 -111 2 -14 9 -38 14 -54 6 -18 6 -35 0 -47 -6 -10 -10 -31 -10 -48 0
-20 -11 -41 -37 -69 -61 -63 -86 -75 -161 -75 -58 0 -73 4 -109 29 -23 16 -54
47 -69 69 -23 35 -27 50 -27 116 0 69 3 81 29 115 65 87 106 106 204 96 25 -3
56 -12 70 -21z"/>
<path d="M1722 594 c-12 -8 -22 -20 -22 -25 0 -14 -26 -39 -39 -39 -6 0 -11
14 -11 30 0 25 -4 30 -25 30 l-25 0 0 -245 0 -245 25 0 25 0 0 169 c0 94 4
172 9 175 4 3 11 18 14 34 9 42 53 82 92 82 32 0 52 21 39 41 -8 14 -57 10
-82 -7z"/>
<path d="M2273 584 c-59 -28 -121 -94 -130 -137 -3 -15 -10 -30 -14 -33 -14
-8 -10 -95 7 -143 23 -66 62 -115 119 -147 91 -51 215 -34 284 40 37 39 51 34
51 -19 0 -38 3 -45 20 -45 19 0 20 7 20 245 0 238 -1 245 -20 245 -17 0 -20
-7 -20 -40 0 -47 -18 -53 -48 -15 -11 14 -25 25 -31 25 -6 0 -11 4 -11 9 0 5
-13 12 -30 16 -16 4 -32 11 -35 16 -12 19 -109 9 -162 -17z m205 -47 c40 -23
82 -67 82 -84 0 -6 4 -13 10 -15 5 -1 12 -33 16 -69 9 -94 -13 -139 -99 -203
-33 -24 -48 -28 -107 -28 -88 -1 -127 22 -184 106 -21 32 -26 50 -26 104 0 56
4 72 32 115 64 100 181 132 276 74z"/>
<path d="M1943 593 c-10 -4 -13 -62 -13 -249 l0 -244 25 0 25 0 0 244 c0 249
-2 261 -37 249z"/>
</g>
</svg>
